<?xml version="1.0" encoding="utf-8"?>
<svg version="1.1" xmlns:xlink="http://www.w3.org/1999/xlink" width="200px" height="50px" xmlns="http://www.w3.org/2000/svg">
  <defs>
    <mask fill="white" id="clip15">
      <path d="M 25 50  C 11 50  0 39  0 25  C 0 11  11 0  25 0  L 67.27272727272657 0  L 127.8787878787873 0  L 175 0  C 189 0  200 11  200 25  C 200 39  189 50  175 50  L 25 50  Z " fill-rule="evenodd" />
    </mask>
  </defs>
  <g transform="matrix(1 0 0 1 -1000 -500 )">
    <path d="M 25 50  C 11 50  0 39  0 25  C 0 11  11 0  25 0  L 67.27272727272657 0  L 127.8787878787873 0  L 175 0  C 189 0  200 11  200 25  C 200 39  189 50  175 50  L 25 50  Z " fill-rule="nonzero" fill="#ffffff" stroke="none" transform="matrix(1 0 0 1 1000 500 )" />
    <path d="M 25 50  C 11 50  0 39  0 25  C 0 11  11 0  25 0  L 67.27272727272657 0  L 127.8787878787873 0  L 175 0  C 189 0  200 11  200 25  C 200 39  189 50  175 50  L 25 50  Z " stroke-width="2" stroke="#797979" fill="none" transform="matrix(1 0 0 1 1000 500 )" mask="url(#clip15)" />
  </g>
</svg>